<svg width="10" height="18" viewBox="0 0 10 18" fill="none" xmlns="http://www.w3.org/2000/svg">
<path d="M3.3335 8.08366C3.74771 8.08366 4.0835 7.74787 4.0835 7.33366V4.83366C4.0835 3.9275 4.44347 3.05846 5.08421 2.41771C5.72496 1.77696 6.59401 1.41699 7.50016 1.41699H9.25016V3.25033H7.50016C7.08024 3.25033 6.67751 3.41714 6.38058 3.71407C6.08365 4.01101 5.91683 4.41373 5.91683 4.83366V7.33366C5.91683 7.74787 6.25262 8.08366 6.66683 8.08366H9.03958L8.58125 9.91699H6.66683C6.25262 9.91699 5.91683 10.2528 5.91683 10.667V16.5837H4.0835V10.667C4.0835 10.2528 3.74771 9.91699 3.3335 9.91699H1.5835V8.08366H3.3335Z" fill="#C3E4F5" stroke="#C3E4F5" stroke-width="1.5" stroke-linecap="round" stroke-linejoin="round"/>
</svg>
