<svg width="215" height="35" viewBox="0 0 215 35" fill="none" xmlns="http://www.w3.org/2000/svg">
<path d="M13.8954 1.35487C14.5433 0.9815 15.3708 1.00077 16.0091 1.38859C20.0325 3.66255 24.0487 5.94373 28.06 8.23455C28.7589 8.60069 29.2564 9.32335 29.2079 10.1279C29.22 14.936 29.2151 19.7464 29.2103 24.5545C29.2734 25.4217 28.7711 26.2407 27.9921 26.6213C24.0075 28.9049 20.0204 31.1885 16.0309 33.4624C15.332 33.9249 14.3905 33.9996 13.6673 33.5516C9.51524 31.2848 5.37287 28.9964 1.22565 26.7201C0.412709 26.3202 -0.0944677 25.4602 0.0147335 24.5569C0.058414 19.8211 0.187027 15.0829 0.160333 10.3447C0.0972389 9.42933 0.64082 8.60551 1.45862 8.21287C5.60583 5.93169 9.73607 3.61437 13.8954 1.35487ZM14.49 4.29608C10.8523 6.31469 7.2026 8.31886 3.56498 10.3399C3.29319 10.4748 2.98015 10.6988 3.06266 11.0577C2.99471 15.4996 2.87823 19.9416 2.94375 24.3835C6.62505 26.4141 10.3233 28.4135 13.9901 30.4682C13.9925 27.5294 14.0022 24.5882 13.9852 21.6494C11.7381 20.2017 9.50068 18.7323 7.28753 17.234C6.79734 17.0076 6.8847 16.4921 6.9211 16.0537C7.28268 16.0416 7.68308 15.8851 8.00583 16.1187C10.02 17.3834 11.9613 18.7612 13.9828 20.0162C14.0216 16.7812 13.9609 13.5461 14.0119 10.3134C14.1502 9.87497 14.2206 9.16195 14.6962 9.00056C15.0796 9.43416 15.3927 10.0002 15.3611 10.5976C15.3684 12.6042 15.349 14.6132 15.3684 16.6222C17.4141 15.3093 19.4307 13.9508 21.4691 12.6235C21.787 12.344 22.2166 12.438 22.6048 12.4404C22.6291 12.7704 22.7892 13.1655 22.5587 13.4618C22.0467 13.9435 21.406 14.2663 20.8285 14.6662C19.0012 15.8417 17.2248 17.0991 15.3563 18.212C15.3684 20.4137 15.3466 22.6178 15.3684 24.8195C17.3704 23.4729 19.3506 22.0975 21.3357 20.7244C21.7264 20.4306 22.4131 20.3872 22.6558 20.8906C22.7529 21.4953 22.1535 21.7867 21.7531 22.0975C19.62 23.5428 17.5136 25.0291 15.3708 26.4623C15.3466 27.8233 15.3636 29.1867 15.3611 30.5501C18.9866 28.4039 22.7019 26.3997 26.3104 24.2341C26.405 19.679 26.3347 15.1166 26.3444 10.5615C22.6679 8.46098 18.9721 6.38695 15.2908 4.29125C15.0481 4.10577 14.7326 4.11782 14.49 4.29608Z" fill="#1F9CDE"/>
<path d="M132.112 0.0938547C132.473 -0.0289966 132.867 0.0119526 133.248 0.00231724C136.077 0.0167703 138.907 0.0119526 141.736 0.00231724C142.086 -0.0145447 142.435 0.0625414 142.77 0.17094C142.733 7.10602 142.772 14.0387 142.763 20.9714C142.755 21.788 142.709 22.6094 142.852 23.4188C144.67 23.4067 146.49 23.4067 148.31 23.4212C148.342 24.7171 148.305 26.0131 148.332 27.309C142.903 27.3669 137.475 27.3572 132.049 27.3187C132.061 26.0131 132.039 24.7075 132.071 23.4019C133.954 23.4332 135.837 23.3802 137.718 23.4332C137.994 22.5588 137.844 21.6338 137.858 20.7329C137.824 15.1973 137.909 9.6594 137.81 4.12145C135.89 4.04196 133.968 4.09978 132.049 4.09255C132.09 2.76045 131.981 1.42113 132.112 0.0938547Z" fill="white"/>
<path d="M113.185 3.48828C114.821 3.49551 116.457 3.48346 118.092 3.50032C118.153 5.07571 118.087 6.65351 118.114 8.2289C120.519 8.20481 122.924 8.24335 125.329 8.20722C125.302 9.40201 125.336 10.5944 125.321 11.7892C122.919 11.7795 120.519 11.806 118.119 11.7747C118.109 14.6798 118.1 17.5873 118.121 20.4924C118.134 21.545 118.498 22.7615 119.507 23.277C120.276 23.713 121.194 23.7009 122.055 23.6841C123.264 23.6407 124.479 23.5203 125.642 23.1806C125.897 24.2574 125.923 25.3751 126.168 26.4567C125.566 27.0131 124.681 27.1167 123.914 27.3287C121.427 27.8129 118.677 28.0562 116.335 26.9023C114.319 25.8858 113.292 23.6166 113.2 21.4535C113.147 18.2304 113.21 15.0074 113.166 11.7844C111.691 11.794 110.218 11.782 108.745 11.794C108.752 10.6016 108.757 9.40924 108.745 8.21686C110.225 8.23131 111.705 8.21445 113.185 8.23131C113.183 6.64869 113.171 5.06849 113.185 3.48828Z" fill="white"/>
<path d="M67.1538 10.7263C70.2503 7.24309 76.1545 6.86972 79.7508 9.79166C81.4859 11.343 82.4445 13.6073 82.6604 15.8909C82.7672 17.0278 82.6847 18.1696 82.7163 19.309C78.3531 19.4198 73.9826 19.35 69.6145 19.3428C69.7722 21.0241 70.8934 22.5754 72.4222 23.3053C74.9217 24.3869 78.0667 23.6522 79.8697 21.6312C80.7142 22.5056 81.5975 23.3559 82.3377 24.3243C78.6782 28.6 71.3545 28.8673 67.3067 24.9987C65.4867 23.2812 64.5573 20.776 64.5694 18.3069C64.5039 15.5994 65.244 12.7377 67.1538 10.7263ZM71.4734 12.6341C70.4469 13.4387 69.9203 14.7081 69.7092 15.9607C72.4222 15.9511 75.1352 15.9848 77.8459 15.9463C78.0254 14.7346 77.443 13.3447 76.4481 12.5763C75.0285 11.4995 72.8614 11.4851 71.4734 12.6341Z" fill="white"/>
<path d="M48.8967 9.74439C50.4813 8.31835 52.7042 7.55233 54.8348 7.91607C56.5481 8.10878 58.2832 8.93742 59.1568 10.4719C60.2803 12.1388 60.3847 14.2152 60.3847 16.1543C60.3313 19.8856 60.4478 23.6194 60.3337 27.3483C58.7273 27.3049 57.1135 27.4278 55.5119 27.3049C55.3711 26.9749 55.4464 26.6015 55.427 26.2571C55.4488 22.5643 55.4342 18.8715 55.4294 15.1812C55.4439 14.1646 55.1357 13.0349 54.2427 12.4423C52.4785 11.3439 49.8698 11.6112 48.4866 13.1963C47.9042 13.7961 48.0571 14.6657 48.0425 15.4196C48.0959 19.4015 48.028 23.3809 48.0619 27.3627C46.4458 27.3362 44.8296 27.3338 43.2158 27.3675C43.228 20.9841 43.2255 14.5982 43.2182 8.21476C44.6743 8.23163 46.1303 8.22199 47.5887 8.21958C47.7562 9.01932 47.812 9.83592 47.8241 10.6549C48.3556 10.6164 48.5376 10.0503 48.8967 9.74439Z" fill="white"/>
<path d="M154.418 11.4065C157.408 7.22474 164.215 6.59844 167.942 10.1419C170.376 12.4977 170.694 16.1158 170.589 19.3075C166.195 19.4737 161.788 19.2545 157.393 19.4135C157.706 21.0443 158.718 22.5932 160.266 23.3062C162.759 24.3974 165.896 23.6242 167.709 21.6345C168.573 22.4824 169.369 23.3953 170.162 24.3107C167.148 27.8903 161.526 28.6611 157.42 26.6015C154.867 25.3827 153.02 22.8799 152.557 20.1121C152.202 17.1348 152.467 13.8346 154.418 11.4065ZM158.932 12.9554C158.094 13.7696 157.806 14.9162 157.427 15.9761C160.227 15.9689 163.03 15.9689 165.833 15.9761C165.668 14.9499 165.479 13.8443 164.756 13.0445C163.324 11.3656 160.429 11.3487 158.932 12.9554Z" fill="white"/>
<path d="M176.683 9.91661C179.041 7.88836 182.429 7.50776 185.402 8.08347C187.474 8.48334 189.607 9.57937 190.537 11.5594C191.638 13.6479 191.085 16.0712 191.218 18.3235C191.359 21.3297 190.75 24.507 192.031 27.347C190.325 27.3374 188.619 27.3567 186.913 27.335C186.756 26.7641 186.613 26.1884 186.465 25.6175C183.684 28.3684 178.655 28.4623 175.877 25.6753C174.501 24.2926 174.266 22.221 174.617 20.3927C175.04 18.7137 176.302 17.3021 177.908 16.6421C180.524 15.4401 183.46 15.7316 186.258 15.7075C186.346 14.5416 186.348 13.1686 185.392 12.3279C184.312 11.4294 182.752 11.3499 181.432 11.6558C180.41 11.8774 179.767 12.8964 179.752 13.8912C178.156 13.8936 176.559 13.8719 174.964 13.9057C174.756 12.4001 175.612 10.9283 176.683 9.91661ZM181.228 18.9715C179.701 19.4147 178.837 21.39 179.665 22.7654C180.126 23.7 181.293 23.9482 182.252 23.9193C183.827 23.965 185.375 23.2062 186.3 21.9416C186.275 20.8046 186.324 19.6652 186.253 18.5307C184.574 18.6029 182.82 18.2922 181.228 18.9715Z" fill="white"/>
<path d="M201.678 10.0307C204.187 7.07745 209.203 7.15213 211.785 9.96807C213.309 11.7193 214.11 14.0752 214.042 16.3853C214.03 17.9992 214.056 19.6131 214.032 21.227C214.042 22.2147 213.474 23.065 213.21 23.99C212.986 24.2911 212.785 24.6067 212.598 24.9294C211.982 26.0182 210.89 26.7626 209.815 27.3672C209.298 27.4876 208.798 27.6611 208.32 27.8779C207.284 27.8899 206.247 27.9429 205.218 27.8586C204.893 27.7309 204.551 27.6755 204.216 27.6249C203.719 27.3696 203.233 27.095 202.714 26.8902C202.505 26.6927 202.304 26.4952 202.105 26.2953C202.076 29.1762 202.069 32.0572 202.112 34.9382C200.545 34.9286 198.979 34.9454 197.417 34.9286C197.281 34.8443 197.014 34.6732 196.878 34.5889C196.895 25.8063 196.876 17.0236 196.895 8.23852C198.409 8.19998 199.923 8.23611 201.44 8.21924C201.532 8.82146 201.61 9.42367 201.678 10.0307ZM204.386 11.8566C203.333 12.0686 202.355 12.7166 201.891 13.6946C201.85 16.1155 201.904 18.5388 201.87 20.9621C201.887 21.3378 201.814 21.7498 202.006 22.099C203.209 24.161 206.631 24.4862 208.077 22.5158C209.419 20.6826 209.351 18.2882 209.213 16.1347C209.016 14.9785 208.715 13.7476 207.868 12.8804C206.992 11.9602 205.624 11.5507 204.386 11.8566Z" fill="white"/>
<path d="M86.4161 8.2002C88.1706 8.24596 89.9227 8.22428 91.6772 8.21224C93.1429 10.1851 94.4752 12.2495 95.9312 14.2271C97.2537 12.1772 98.7995 10.2766 100.117 8.21946C101.879 8.22428 103.643 8.21465 105.407 8.23151C103.303 11.3799 101.151 14.4969 98.9694 17.5947C101.195 20.8394 103.466 24.0553 105.657 27.3241C103.913 27.4011 102.163 27.3168 100.416 27.353C98.8432 25.3127 97.4673 23.1327 95.9045 21.0851C94.4218 23.1495 92.9973 25.2549 91.517 27.3192C89.7407 27.3722 87.9668 27.3506 86.1904 27.3506C88.3914 24.0769 90.6871 20.8587 92.8517 17.5634C90.7017 14.4463 88.5589 11.3221 86.4161 8.2002Z" fill="white"/>
</svg>
