<svg width="19" height="19" viewBox="0 0 19 19" fill="none" xmlns="http://www.w3.org/2000/svg">
<path d="M17.4479 13.3084V15.8084C17.4489 16.0405 17.4013 16.2702 17.3084 16.4829C17.2154 16.6955 17.079 16.8864 16.908 17.0433C16.737 17.2002 16.5351 17.3197 16.3152 17.394C16.0954 17.4684 15.8624 17.496 15.6313 17.4751C13.067 17.1964 10.6038 16.3202 8.43961 14.9167C6.42613 13.6373 4.71906 11.9302 3.43961 9.91675C2.03126 7.74275 1.15481 5.26758 0.881276 2.69175C0.860451 2.4613 0.887838 2.22905 0.961693 2.00977C1.03555 1.79049 1.15425 1.58899 1.31025 1.4181C1.46624 1.24721 1.65611 1.11067 1.86777 1.01718C2.07942 0.923693 2.30823 0.875299 2.53961 0.875081H5.03961C5.44403 0.8711 5.8361 1.01431 6.14274 1.27802C6.44939 1.54174 6.64967 1.90795 6.70628 2.30841C6.81179 3.10847 7.00748 3.89402 7.28961 4.65008C7.40173 4.94835 7.42599 5.27251 7.35953 5.58415C7.29307 5.89579 7.13866 6.18184 6.91461 6.40841L5.85628 7.46675C7.04257 9.55304 8.76999 11.2805 10.8563 12.4667L11.9146 11.4084C12.1412 11.1844 12.4272 11.03 12.7389 10.9635C13.0505 10.897 13.3747 10.9213 13.6729 11.0334C14.429 11.3155 15.2146 11.5112 16.0146 11.6167C16.4194 11.6739 16.7891 11.8778 17.0534 12.1897C17.3177 12.5016 17.4581 12.8997 17.4479 13.3084Z" stroke="white" stroke-width="1.5" stroke-linecap="round" stroke-linejoin="round"/>
</svg>
