<svg width="18" height="17" viewBox="0 0 18 17" fill="none" xmlns="http://www.w3.org/2000/svg">
<path d="M12.3332 6.41699C13.4603 6.41699 14.5413 6.86476 15.3384 7.66179C16.1354 8.45882 16.5832 9.53982 16.5832 10.667V15.7503H14.7498V10.667C14.7498 10.0261 14.4952 9.41136 14.042 8.95815C13.5888 8.50494 12.9741 8.25033 12.3332 8.25033C11.6922 8.25033 11.0775 8.50494 10.6243 8.95815C10.1711 9.41136 9.9165 10.0261 9.9165 10.667V15.7503H8.08317V10.667C8.08317 9.53982 8.53094 8.45882 9.32797 7.66179C10.125 6.86476 11.206 6.41699 12.3332 6.41699ZM3.24984 7.25033V15.7503H1.4165V7.25033H3.24984ZM3.24984 2.33366C3.24984 2.83992 2.83943 3.25033 2.33317 3.25033C1.82691 3.25033 1.4165 2.83992 1.4165 2.33366C1.4165 1.8274 1.82691 1.41699 2.33317 1.41699C2.83943 1.41699 3.24984 1.8274 3.24984 2.33366Z" fill="#C3E4F5" stroke="#C3E4F5" stroke-width="1.5" stroke-linecap="round" stroke-linejoin="round"/>
</svg>
