<svg width="18" height="18" viewBox="0 0 18 18" fill="none" xmlns="http://www.w3.org/2000/svg">
<path d="M12.9844 5.01562H12.9922M4.78125 1.5H12.5938C14.7511 1.5 16.5 3.24889 16.5 5.40625V13.2188C16.5 15.3761 14.7511 17.125 12.5938 17.125H4.78125C2.62389 17.125 0.875 15.3761 0.875 13.2188V5.40625C0.875 3.24889 2.62389 1.5 4.78125 1.5ZM11.8125 8.82031C11.9089 9.47051 11.7979 10.1345 11.4951 10.718C11.1924 11.3014 10.7134 11.7745 10.1263 12.0701C9.53915 12.3656 8.87379 12.4684 8.22483 12.364C7.57588 12.2596 6.97638 11.9532 6.51159 11.4884C6.04681 11.0236 5.74042 10.4241 5.63599 9.77517C5.53156 9.12621 5.63443 8.46086 5.92994 7.87373C6.22546 7.2866 6.69858 6.80761 7.28202 6.50488C7.86546 6.20214 8.5295 6.09108 9.17969 6.1875C9.84291 6.28585 10.4569 6.59489 10.931 7.06899C11.4051 7.54309 11.7142 8.15709 11.8125 8.82031Z" stroke="#C3E4F5" stroke-width="1.5" stroke-linecap="round" stroke-linejoin="round"/>
</svg>
