<svg width="180" height="34" viewBox="0 0 180 34" fill="none" xmlns="http://www.w3.org/2000/svg">
<path d="M108.719 4.06749C108.99 3.97467 109.285 4.00561 109.57 3.99833C111.693 4.00925 113.815 4.00561 115.937 3.99833C116.199 3.98559 116.461 4.04384 116.712 4.12574C116.685 9.36557 116.714 14.6036 116.707 19.8416C116.701 20.4586 116.667 21.0792 116.774 21.6907C118.137 21.6816 119.502 21.6817 120.867 21.6926C120.891 22.6717 120.864 23.6509 120.884 24.6301C116.812 24.6738 112.741 24.6665 108.671 24.6374C108.68 23.6509 108.664 22.6645 108.688 21.678C110.1 21.7017 111.512 21.6616 112.923 21.7017C113.13 21.041 113.018 20.3421 113.028 19.6614C113.003 15.479 113.067 11.2948 112.992 7.11057C111.552 7.05051 110.111 7.09419 108.671 7.08873C108.702 6.08226 108.62 5.07033 108.719 4.06749Z" fill="white"/>
<path d="M94.5235 6.63184C95.7502 6.6373 96.9769 6.62819 98.2036 6.64093C98.2491 7.83123 98.2 9.02334 98.22 10.2136C100.024 10.1954 101.827 10.2246 103.631 10.1973C103.611 11.1 103.636 12.0009 103.625 12.9036C101.824 12.8963 100.024 12.9164 98.2236 12.8927C98.2163 15.0877 98.2091 17.2844 98.2254 19.4794C98.2345 20.2747 98.5075 21.1938 99.2647 21.5833C99.8416 21.9127 100.53 21.9036 101.176 21.8909C102.082 21.8581 102.994 21.7671 103.866 21.5105C104.057 22.3241 104.077 23.1686 104.261 23.9857C103.809 24.4062 103.145 24.4844 102.57 24.6446C100.704 25.0104 98.6422 25.1942 96.8859 24.3224C95.3735 23.5544 94.6036 21.8399 94.5344 20.2056C94.4944 17.7704 94.5417 15.3352 94.509 12.9C93.4024 12.9073 92.2976 12.8982 91.1929 12.9073C91.1983 12.0064 91.202 11.1054 91.1929 10.2045C92.3031 10.2155 93.4133 10.2027 94.5235 10.2155C94.5217 9.0197 94.5126 7.82577 94.5235 6.63184Z" fill="white"/>
<path d="M59.9999 12.1013C62.3222 9.46958 66.7504 9.18747 69.4476 11.3952C70.749 12.5672 71.4679 14.2781 71.6298 16.0034C71.7099 16.8625 71.648 17.7252 71.6717 18.5861C68.3993 18.6698 65.1214 18.617 61.8454 18.6115C61.9637 19.8819 62.8046 21.054 63.9512 21.6055C65.8258 22.4227 68.1845 21.8676 69.5368 20.3406C70.1702 21.0012 70.8327 21.6437 71.3878 22.3753C68.6432 25.6059 63.1504 25.8079 60.1146 22.8849C58.7495 21.5873 58.0525 19.6944 58.0616 17.8289C58.0124 15.7832 58.5675 13.621 59.9999 12.1013ZM63.2395 13.5428C62.4697 14.1507 62.0747 15.1098 61.9164 16.0562C63.9512 16.049 65.9859 16.0744 68.0189 16.0453C68.1536 15.1298 67.7168 14.0797 66.9706 13.4991C65.9059 12.6856 64.2806 12.6746 63.2395 13.5428Z" fill="white"/>
<path d="M46.3071 11.3585C47.4955 10.281 49.1627 9.70228 50.7606 9.9771C52.0456 10.1227 53.3469 10.7488 54.0021 11.9081C54.8448 13.1676 54.923 14.7365 54.923 16.2016C54.883 19.0208 54.9704 21.8418 54.8848 24.6592C53.68 24.6264 52.4696 24.7193 51.2684 24.6265C51.1629 24.3771 51.2193 24.095 51.2047 23.8347C51.2211 21.0446 51.2102 18.2546 51.2066 15.4663C51.2175 14.6982 50.9863 13.8446 50.3166 13.3969C48.9934 12.567 47.0369 12.769 45.9995 13.9666C45.5627 14.4198 45.6773 15.0768 45.6664 15.6465C45.7065 18.655 45.6555 21.6616 45.681 24.6701C44.4688 24.6501 43.2567 24.6483 42.0464 24.6738C42.0555 19.8507 42.0537 15.0258 42.0482 10.2028C43.1402 10.2155 44.2322 10.2082 45.3261 10.2064C45.4516 10.8107 45.4935 11.4277 45.5026 12.0465C45.9012 12.0173 46.0377 11.5896 46.3071 11.3585Z" fill="white"/>
<path d="M125.448 12.6143C127.69 9.45472 132.795 8.98152 135.591 11.6588C137.416 13.4387 137.655 16.1724 137.576 18.5839C134.28 18.7095 130.975 18.5439 127.679 18.664C127.914 19.8962 128.673 21.0664 129.834 21.6052C131.703 22.4296 134.056 21.8454 135.416 20.3421C136.064 20.9827 136.661 21.6725 137.256 22.3641C134.995 25.0687 130.778 25.6511 127.699 24.095C125.784 23.174 124.399 21.283 124.052 19.1918C123.786 16.9423 123.984 14.4489 125.448 12.6143ZM128.833 13.7845C128.205 14.3997 127.988 15.266 127.704 16.0669C129.805 16.0614 131.907 16.0614 134.009 16.0669C133.885 15.2915 133.743 14.4561 133.201 13.8519C132.127 12.5833 129.956 12.5706 128.833 13.7845Z" fill="white"/>
<path d="M142.146 11.4895C143.915 9.95707 146.456 9.6695 148.686 10.1045C150.24 10.4066 151.84 11.2347 152.537 12.7308C153.363 14.3087 152.948 16.1397 153.048 17.8414C153.154 20.1128 152.697 22.5134 153.658 24.6592C152.379 24.6519 151.099 24.6665 149.82 24.6501C149.701 24.2187 149.594 23.7837 149.483 23.3524C147.397 25.4309 143.626 25.5018 141.542 23.3961C140.51 22.3514 140.334 20.7862 140.598 19.4048C140.914 18.1362 141.861 17.0697 143.066 16.571C145.028 15.6628 147.23 15.883 149.328 15.8648C149.394 14.984 149.396 13.9465 148.678 13.3114C147.869 12.6325 146.698 12.5724 145.708 12.8036C144.942 12.971 144.46 13.7409 144.449 14.4926C143.251 14.4944 142.054 14.478 140.858 14.5035C140.701 13.366 141.344 12.2539 142.146 11.4895ZM145.555 18.331C144.411 18.6659 143.763 20.1583 144.383 21.1975C144.729 21.9037 145.604 22.0911 146.323 22.0693C147.505 22.1039 148.666 21.5306 149.359 20.5751C149.341 19.716 149.377 18.8551 149.325 17.9979C148.065 18.0525 146.749 17.8177 145.555 18.331Z" fill="white"/>
<path d="M160.893 11.5753C162.775 9.34392 166.537 9.40033 168.473 11.5279C169.616 12.8511 170.217 14.6311 170.166 16.3765C170.157 17.5959 170.177 18.8153 170.159 20.0347C170.166 20.7809 169.74 21.4234 169.542 22.1223C169.374 22.3498 169.223 22.5882 169.083 22.8321C168.621 23.6547 167.802 24.2171 166.995 24.6739C166.608 24.7649 166.233 24.896 165.874 25.0598C165.097 25.0689 164.32 25.1089 163.548 25.0452C163.304 24.9488 163.048 24.9069 162.797 24.8687C162.424 24.6758 162.06 24.4683 161.67 24.3136C161.514 24.1643 161.363 24.0151 161.213 23.864C161.191 26.0408 161.186 28.2175 161.219 30.3943C160.043 30.387 158.869 30.3997 157.697 30.387C157.595 30.3233 157.395 30.1941 157.293 30.1304C157.306 23.4946 157.291 16.8588 157.306 10.2212C158.441 10.192 159.577 10.2193 160.715 10.2066C160.784 10.6616 160.842 11.1166 160.893 11.5753ZM162.924 12.9548C162.134 13.115 161.401 13.6046 161.053 14.3435C161.022 16.1726 161.062 18.0036 161.037 19.8345C161.049 20.1184 160.995 20.4297 161.139 20.6936C162.041 22.2515 164.608 22.4972 165.692 21.0084C166.699 19.6234 166.648 17.8143 166.544 16.1872C166.397 15.3136 166.171 14.3835 165.536 13.7283C164.879 13.0331 163.852 12.7237 162.924 12.9548Z" fill="white"/>
<path d="M74.4466 10.1919C75.7625 10.2265 77.0765 10.2101 78.3924 10.201C79.4917 11.6916 80.4909 13.2513 81.5829 14.7456C82.5748 13.1967 83.7342 11.7607 84.7224 10.2065C86.0438 10.2101 87.3669 10.2028 88.6901 10.2156C87.1121 12.5943 85.4978 14.9494 83.8616 17.29C85.5305 19.7415 87.2341 22.1713 88.8776 24.641C87.569 24.6993 86.2567 24.6356 84.9463 24.6629C83.7669 23.1213 82.735 21.4742 81.5629 19.9272C80.4509 21.4869 79.3825 23.0776 78.2723 24.6374C76.94 24.6774 75.6096 24.6611 74.2773 24.6611C75.9281 22.1876 77.6498 19.7561 79.2733 17.2663C77.6608 14.9112 76.0537 12.5506 74.4466 10.1919Z" fill="white"/>
<path d="M20.0959 5.0362C20.5818 4.7541 21.2025 4.76866 21.6811 5.06168C24.6987 6.77978 27.7108 8.50334 30.7193 10.2342C31.2435 10.5108 31.6166 11.0568 31.5802 11.6647C31.5893 15.2975 31.5857 18.9321 31.582 22.5648C31.6293 23.22 31.2526 23.8388 30.6684 24.1264C27.6799 25.8518 24.6896 27.5771 21.6975 29.2952C21.1733 29.6447 20.4672 29.7011 19.9248 29.3626C16.8107 27.6499 13.704 25.9209 10.5936 24.201C9.98385 23.8989 9.60347 23.2491 9.68537 22.5666C9.71813 18.9885 9.81459 15.4085 9.79457 11.8285C9.74725 11.1369 10.1549 10.5145 10.7683 10.2178C13.8787 8.49424 16.9764 6.74338 20.0959 5.0362ZM20.5418 7.25845C17.8136 8.78362 15.0763 10.2979 12.3481 11.8249C12.1442 11.9268 11.9094 12.0961 11.9713 12.3672C11.9204 15.7234 11.833 19.0795 11.8821 22.4356C14.6431 23.9699 17.4168 25.4805 20.1669 27.033C20.1687 24.8125 20.176 22.5903 20.1632 20.3699C18.4779 19.276 16.7998 18.1658 15.14 17.0338C14.7723 16.8627 14.8378 16.4732 14.8651 16.142C15.1363 16.1329 15.4366 16.0146 15.6787 16.1911C17.1893 17.1466 18.6453 18.1877 20.1614 19.1359C20.1905 16.6916 20.145 14.2473 20.1832 11.8049C20.287 11.4736 20.3398 10.9349 20.6965 10.8129C20.984 11.1405 21.2188 11.5683 21.1952 12.0196C21.2006 13.5357 21.1861 15.0536 21.2006 16.5715C22.7349 15.5796 24.2473 14.5531 25.7762 13.5503C26.0146 13.3391 26.3367 13.4101 26.6279 13.4119C26.6461 13.6613 26.7663 13.9598 26.5934 14.1836C26.2093 14.5476 25.7288 14.7915 25.2957 15.0936C23.9252 15.9818 22.5929 16.9319 21.1915 17.7727C21.2006 19.4362 21.1843 21.1015 21.2006 22.765C22.7022 21.7476 24.1873 20.7084 25.6761 19.671C25.9691 19.4489 26.4842 19.4162 26.6662 19.7966C26.739 20.2534 26.2894 20.4736 25.9891 20.7084C24.3893 21.8004 22.8095 22.9234 21.2025 24.0063C21.1843 25.0346 21.197 26.0647 21.1952 27.0948C23.9143 25.4732 26.7007 23.9589 29.4071 22.3228C29.4781 18.8811 29.4253 15.434 29.4326 11.9923C26.6753 10.4053 23.9034 8.83822 21.1424 7.2548C20.9604 7.11466 20.7238 7.12376 20.5418 7.25845Z" fill="#1F9CDE"/>
</svg>
