<svg width="1920" height="219" viewBox="0 0 1920 219" fill="none" xmlns="http://www.w3.org/2000/svg">
<path d="M252.899 0.454535H182.494V210.852H179.554L35.1506 0.454535H-26.9233V335H43.8082V124.439H46.2585L191.805 335H252.899V0.454535ZM424.378 339.901C486.452 339.901 528.27 309.68 538.071 263.125L473.711 258.878C466.686 277.99 448.718 287.955 425.522 287.955C390.728 287.955 368.675 264.922 368.675 227.514V227.351H539.542V208.239C539.542 122.969 487.922 80.8239 421.601 80.8239C347.766 80.8239 299.904 133.26 299.904 210.689C299.904 290.241 347.113 339.901 424.378 339.901ZM368.675 184.226C370.145 155.639 391.871 132.77 422.745 132.77C452.965 132.77 473.874 154.332 474.037 184.226H368.675ZM639.064 84.0909H567.189L639.064 209.545L564.575 335H636.45L685.129 248.26L734.625 335H805.683L731.031 209.545L803.723 84.0909H732.338L685.129 171.811L639.064 84.0909ZM978.51 84.0909H931.301V23.9773H861.713V84.0909H827.409V136.364H861.713V267.045C861.386 316.214 894.874 340.554 945.349 338.43C963.318 337.777 976.06 334.183 983.084 331.896L972.139 280.114C968.709 280.767 961.358 282.401 954.824 282.401C940.939 282.401 931.301 277.173 931.301 257.898V136.364H978.51V84.0909ZM1098.82 0.454535H1029.23V335H1098.82V0.454535ZM1268.91 339.901C1330.98 339.901 1372.8 309.68 1382.6 263.125L1318.24 258.878C1311.22 277.99 1293.25 287.955 1270.05 287.955C1235.26 287.955 1213.21 264.922 1213.21 227.514V227.351H1384.07V208.239C1384.07 122.969 1332.45 80.8239 1266.13 80.8239C1192.3 80.8239 1144.44 133.26 1144.44 210.689C1144.44 290.241 1191.64 339.901 1268.91 339.901ZM1213.21 184.226C1214.68 155.639 1236.4 132.77 1267.28 132.77C1297.5 132.77 1318.41 154.332 1318.57 184.226H1213.21ZM1501.03 339.737C1538.11 339.737 1562.13 323.565 1574.38 300.206H1576.34V335H1642.33V165.767C1642.33 105.98 1591.69 80.8239 1535.83 80.8239C1475.71 80.8239 1436.18 109.574 1426.54 155.312L1490.91 160.54C1495.64 143.878 1510.51 131.626 1535.5 131.626C1559.19 131.626 1572.74 143.551 1572.74 164.134V165.114C1572.74 181.286 1555.59 183.409 1511.98 187.656C1462.32 192.23 1417.72 208.892 1417.72 264.922C1417.72 314.581 1453.17 339.737 1501.03 339.737ZM1520.96 291.712C1499.56 291.712 1484.21 281.747 1484.21 262.635C1484.21 243.033 1500.38 233.395 1524.88 229.964C1540.07 227.841 1564.9 224.247 1573.23 218.693V245.32C1573.23 271.619 1551.51 291.712 1520.96 291.712ZM1696.32 429.091H1765.91V294.815H1768.03C1777.67 315.724 1798.74 339.084 1839.25 339.084C1896.43 339.084 1941.02 293.835 1941.02 209.872C1941.02 123.622 1894.47 80.8239 1839.42 80.8239C1797.44 80.8239 1777.34 105.817 1768.03 126.236H1764.93V84.0909H1696.32V429.091ZM1764.44 209.545C1764.44 164.787 1783.39 136.2 1817.2 136.2C1851.67 136.2 1869.96 166.094 1869.96 209.545C1869.96 253.324 1851.34 283.707 1817.2 283.707C1783.71 283.707 1764.44 254.304 1764.44 209.545Z" fill="white" fill-opacity="0.1"/>
</svg>
