<svg width="213" height="46" viewBox="0 0 213 46" fill="none" xmlns="http://www.w3.org/2000/svg">
<path d="M0.933594 28.8574C0.933594 25.7129 1.53906 22.9102 2.75 20.4492C3.96094 17.9883 5.69922 16.084 7.96484 14.7363C10.25 13.3887 12.8965 12.7148 15.9043 12.7148C20.1816 12.7148 23.668 14.0234 26.3633 16.6406C29.0781 19.2578 30.5918 22.8125 30.9043 27.3047L30.9629 29.4727C30.9629 34.3359 29.6055 38.2422 26.8906 41.1914C24.1758 44.1211 20.5332 45.5859 15.9629 45.5859C11.3926 45.5859 7.74023 44.1211 5.00586 41.1914C2.29102 38.2617 0.933594 34.2773 0.933594 29.2383V28.8574ZM9.40039 29.4727C9.40039 32.4805 9.9668 34.7852 11.0996 36.3867C12.2324 37.9688 13.8535 38.7598 15.9629 38.7598C18.0137 38.7598 19.6152 37.9785 20.7676 36.416C21.9199 34.834 22.4961 32.3145 22.4961 28.8574C22.4961 25.9082 21.9199 23.623 20.7676 22.002C19.6152 20.3809 17.9941 19.5703 15.9043 19.5703C13.834 19.5703 12.2324 20.3809 11.0996 22.002C9.9668 23.6035 9.40039 26.0938 9.40039 29.4727ZM45.4355 38.1738H60.9336V45H34.625V39.8438L49.5371 20.1562H35.0645V13.3008H60.4648V18.3105L45.4355 38.1738ZM74.1758 13.3008L74.4395 16.8457C76.6855 14.0918 79.7227 12.7148 83.5508 12.7148C87.6328 12.7148 90.4355 14.3262 91.959 17.5488C94.1855 14.3262 97.3594 12.7148 101.48 12.7148C104.918 12.7148 107.477 13.7207 109.156 15.7324C110.836 17.7246 111.676 20.7324 111.676 24.7559V45H103.18V24.7852C103.18 22.9883 102.828 21.6797 102.125 20.8594C101.422 20.0195 100.182 19.5996 98.4043 19.5996C95.8652 19.5996 94.1074 20.8105 93.1309 23.2324L93.1602 45H84.6934V24.8145C84.6934 22.9785 84.332 21.6504 83.6094 20.8301C82.8867 20.0098 81.6562 19.5996 79.918 19.5996C77.5156 19.5996 75.7773 20.5957 74.7031 22.5879V45H66.2363V13.3008H74.1758ZM136.578 45C136.188 44.2383 135.904 43.291 135.729 42.1582C133.678 44.4434 131.012 45.5859 127.73 45.5859C124.625 45.5859 122.047 44.6875 119.996 42.8906C117.965 41.0938 116.949 38.8281 116.949 36.0938C116.949 32.7344 118.189 30.1562 120.67 28.3594C123.17 26.5625 126.773 25.6543 131.48 25.6348H135.377V23.8184C135.377 22.3535 134.996 21.1816 134.234 20.3027C133.492 19.4238 132.311 18.9844 130.689 18.9844C129.264 18.9844 128.141 19.3262 127.32 20.0098C126.52 20.6934 126.119 21.6309 126.119 22.8223H117.652C117.652 20.9863 118.219 19.2871 119.352 17.7246C120.484 16.1621 122.086 14.9414 124.156 14.0625C126.227 13.1641 128.551 12.7148 131.129 12.7148C135.035 12.7148 138.131 13.7012 140.416 15.6738C142.721 17.627 143.873 20.3809 143.873 23.9355V37.6758C143.893 40.6836 144.312 42.959 145.133 44.502V45H136.578ZM129.576 39.1113C130.826 39.1113 131.979 38.8379 133.033 38.291C134.088 37.7246 134.869 36.9727 135.377 36.0352V30.5859H132.213C127.975 30.5859 125.719 32.0508 125.445 34.9805L125.416 35.4785C125.416 36.5332 125.787 37.4023 126.529 38.0859C127.271 38.7695 128.287 39.1113 129.576 39.1113ZM150.816 40.8398C150.816 39.4922 151.266 38.3984 152.164 37.5586C153.082 36.7188 154.225 36.2988 155.592 36.2988C156.979 36.2988 158.121 36.7188 159.02 37.5586C159.938 38.3984 160.396 39.4922 160.396 40.8398C160.396 42.168 159.947 43.252 159.049 44.0918C158.15 44.9121 156.998 45.3223 155.592 45.3223C154.205 45.3223 153.062 44.9121 152.164 44.0918C151.266 43.252 150.816 42.168 150.816 40.8398ZM176.773 45H168.277V13.3008H176.773V45ZM167.779 5.09766C167.779 3.82813 168.199 2.7832 169.039 1.96289C169.898 1.14258 171.061 0.732422 172.525 0.732422C173.971 0.732422 175.123 1.14258 175.982 1.96289C176.842 2.7832 177.271 3.82813 177.271 5.09766C177.271 6.38672 176.832 7.44141 175.953 8.26172C175.094 9.08203 173.951 9.49219 172.525 9.49219C171.1 9.49219 169.947 9.08203 169.068 8.26172C168.209 7.44141 167.779 6.38672 167.779 5.09766ZM182.457 28.8574C182.457 25.7129 183.062 22.9102 184.273 20.4492C185.484 17.9883 187.223 16.084 189.488 14.7363C191.773 13.3887 194.42 12.7148 197.428 12.7148C201.705 12.7148 205.191 14.0234 207.887 16.6406C210.602 19.2578 212.115 22.8125 212.428 27.3047L212.486 29.4727C212.486 34.3359 211.129 38.2422 208.414 41.1914C205.699 44.1211 202.057 45.5859 197.486 45.5859C192.916 45.5859 189.264 44.1211 186.529 41.1914C183.814 38.2617 182.457 34.2773 182.457 29.2383V28.8574ZM190.924 29.4727C190.924 32.4805 191.49 34.7852 192.623 36.3867C193.756 37.9688 195.377 38.7598 197.486 38.7598C199.537 38.7598 201.139 37.9785 202.291 36.416C203.443 34.834 204.02 32.3145 204.02 28.8574C204.02 25.9082 203.443 23.623 202.291 22.002C201.139 20.3809 199.518 19.5703 197.428 19.5703C195.357 19.5703 193.756 20.3809 192.623 22.002C191.49 23.6035 190.924 26.0938 190.924 29.4727Z" fill="#4F4F4F"/>
</svg>
