<svg width="18" height="18" viewBox="0 0 18 18" fill="none" xmlns="http://www.w3.org/2000/svg">
<path d="M16.5 8.87849C16.503 10.0242 16.2353 11.1544 15.7187 12.1771C15.1063 13.4026 14.1647 14.4333 12.9995 15.1539C11.8343 15.8745 10.4915 16.2564 9.12151 16.2569C7.9758 16.2599 6.84558 15.9922 5.82291 15.4757L0.875 17.125L2.5243 12.1771C2.00775 11.1544 1.74007 10.0242 1.74305 8.87849C1.74358 7.50849 2.12553 6.16569 2.84611 5.0005C3.56669 3.83531 4.59744 2.89374 5.82291 2.28127C6.84558 1.76472 7.9758 1.49704 9.12151 1.50002H9.55554C11.3649 1.59984 13.0738 2.36353 14.3551 3.64486C15.6365 4.9262 16.4002 6.63513 16.5 8.44446V8.87849Z" stroke="#C3E4F5" stroke-width="1.5" stroke-linecap="round" stroke-linejoin="round"/>
<mask id="path-2-inside-1_529_10954" fill="white">
<path d="M6.46394 4.75884C6.61176 4.7628 6.77565 4.77079 6.93157 5.11671C7.03497 5.347 7.20914 5.77094 7.35103 6.11628C7.46144 6.38501 7.55229 6.60615 7.57503 6.65141C7.62698 6.75477 7.65896 6.87404 7.59101 7.01317C7.583 7.02958 7.57544 7.04528 7.56815 7.06039C7.51365 7.17344 7.47486 7.25389 7.38321 7.35909C7.34552 7.40232 7.30626 7.44973 7.26715 7.49697C7.19836 7.58005 7.13002 7.6626 7.07143 7.72092C6.96753 7.82421 6.85958 7.93563 6.97947 8.14235C7.09943 8.34906 7.51909 9.02896 8.1386 9.57764C8.80461 10.1703 9.38376 10.42 9.67651 10.5462C9.73336 10.5708 9.7794 10.5906 9.81319 10.6074C10.0211 10.7108 10.1449 10.6949 10.2648 10.5557C10.3848 10.4165 10.7844 9.95135 10.9243 9.74463C11.0602 9.53791 11.2001 9.56972 11.392 9.64127C11.5838 9.71281 12.607 10.2138 12.8148 10.3171C12.8558 10.3376 12.8943 10.356 12.9299 10.3731C13.0745 10.4424 13.1728 10.4895 13.2145 10.5597C13.2664 10.6472 13.2664 11.0607 13.0946 11.5457C12.9187 12.0308 12.0714 12.496 11.6877 12.5317C11.6514 12.5352 11.6152 12.5395 11.578 12.544C11.2264 12.5865 10.78 12.6405 9.1897 12.0149C7.23011 11.2447 5.93657 9.33382 5.67504 8.94748C5.6544 8.91698 5.64018 8.89598 5.63258 8.8858L5.62816 8.87988C5.50917 8.72076 4.78125 7.74728 4.78125 6.74289C4.78125 5.78193 5.25489 5.28163 5.47092 5.05344C5.48461 5.03897 5.49727 5.02561 5.50871 5.01328C5.70052 4.80656 5.92439 4.75488 6.06425 4.75488C6.20418 4.75488 6.34405 4.75488 6.46394 4.75884Z"/>
</mask>
<path d="M6.46394 4.75884C6.61176 4.7628 6.77565 4.77079 6.93157 5.11671C7.03497 5.347 7.20914 5.77094 7.35103 6.11628C7.46144 6.38501 7.55229 6.60615 7.57503 6.65141C7.62698 6.75477 7.65896 6.87404 7.59101 7.01317C7.583 7.02958 7.57544 7.04528 7.56815 7.06039C7.51365 7.17344 7.47486 7.25389 7.38321 7.35909C7.34552 7.40232 7.30626 7.44973 7.26715 7.49697C7.19836 7.58005 7.13002 7.6626 7.07143 7.72092C6.96753 7.82421 6.85958 7.93563 6.97947 8.14235C7.09943 8.34906 7.51909 9.02896 8.1386 9.57764C8.80461 10.1703 9.38376 10.42 9.67651 10.5462C9.73336 10.5708 9.7794 10.5906 9.81319 10.6074C10.0211 10.7108 10.1449 10.6949 10.2648 10.5557C10.3848 10.4165 10.7844 9.95135 10.9243 9.74463C11.0602 9.53791 11.2001 9.56972 11.392 9.64127C11.5838 9.71281 12.607 10.2138 12.8148 10.3171C12.8558 10.3376 12.8943 10.356 12.9299 10.3731C13.0745 10.4424 13.1728 10.4895 13.2145 10.5597C13.2664 10.6472 13.2664 11.0607 13.0946 11.5457C12.9187 12.0308 12.0714 12.496 11.6877 12.5317C11.6514 12.5352 11.6152 12.5395 11.578 12.544C11.2264 12.5865 10.78 12.6405 9.1897 12.0149C7.23011 11.2447 5.93657 9.33382 5.67504 8.94748C5.6544 8.91698 5.64018 8.89598 5.63258 8.8858L5.62816 8.87988C5.50917 8.72076 4.78125 7.74728 4.78125 6.74289C4.78125 5.78193 5.25489 5.28163 5.47092 5.05344C5.48461 5.03897 5.49727 5.02561 5.50871 5.01328C5.70052 4.80656 5.92439 4.75488 6.06425 4.75488C6.20418 4.75488 6.34405 4.75488 6.46394 4.75884Z" fill="#C3E4F5" stroke="#C3E4F5" stroke-width="2" mask="url(#path-2-inside-1_529_10954)"/>
</svg>
